<!DOCTYPE svg PUBLIC "-//W3C//DTD SVG 1.1//EN" "http://www.w3.org/Graphics/SVG/1.1/DTD/svg11.dtd">
<!-- Uploaded to: SVG Repo, www.svgrepo.com, Transformed by: SVG Repo Mixer Tools -->
<svg height="800px" width="800px" version="1.1" id="Layer_1" xmlns="http://www.w3.org/2000/svg" xmlns:xlink="http://www.w3.org/1999/xlink" viewBox="-51.2 -51.2 614.40 614.40" xml:space="preserve" fill="#000000">
<g id="SVGRepo_bgCarrier" stroke-width="0">
<rect x="-51.2" y="-51.2" width="614.40" height="614.40" rx="307.2" fill="#7ed0ec" strokewidth="0"/>
</g>
<g id="SVGRepo_tracerCarrier" stroke-linecap="round" stroke-linejoin="round"/>
<g id="SVGRepo_iconCarrier"> <polygon style="fill:#181818;" points="315.53,173.614 0,372.303 196.47,483.978 322.683,404.503 346.948,364.765 385.788,364.765 512,285.29 "/> <polygon style="fill:#1F5985;" points="315.53,125.083 0,323.772 196.47,435.448 512,236.759 "/> <polygon style="fill:#269AF2;" points="315.53,76.552 0,275.241 196.47,386.917 512,188.228 "/> <polygon style="fill:#BEC8D6;" points="315.53,28.022 189.319,107.497 189.319,147.235 126.212,147.235 0,226.71 196.47,338.386 512,139.697 "/> <polygon style="fill:#E6E2E0;" points="189.319,107.497 126.212,147.235 322.681,258.911 354.235,263.75 385.788,219.172 "/> <polygon style="fill:#CCC4C1;" points="322.681,258.911 322.681,404.503 385.788,364.765 385.788,219.172 "/> </g>
</svg>